# xmcd
#
# Track frame offsets:
#	150
#	13477
#	26876
#	39791
#	52163
#	66297
#	78919
#	91094
#	105726
#	118035
#
# Disc length: 1761 seconds
#
# Revision: 0
# Processed by: cddbd v1.4PL0 Copyright (c) Steve Scherf et al.
# Submitted via: EasyCDDAExtractor 4.6.0.1
#
DISCID=8006df0a
DTITLE=Moe Bandy - Moe Bandy Greatest Hits
DYEAR=1900
DGENRE=Country
TTITLE0=Rodeo Romeo
TTITLE1=Following The Feeling
TTITLE2=My Woman Loves The Devil Out Of Me
TTITLE3=It Was Always So Easy ( To Find An Unhappy Woman) 
TTITLE4=I Cheated Me Right Out Of You
TTITLE5=Barstool Mountain
TTITLE6=In The middle Of Losing You
TTITLE7=Hank Williams, You Wrote My Life
TTITLE8=It's A Cheating Situation
TTITLE9=Someday Soon
EXTD=
EXTT0=
EXTT1=
EXTT2=
EXTT3=
EXTT4=
EXTT5=
EXTT6=
EXTT7=
EXTT8=
EXTT9=
PLAYORDER=
